<svg xmlns="http://www.w3.org/2000/svg" version="1.1" xmlns:xlink="http://www.w3.org/1999/xlink" xmlns:svgjs="http://svgjs.dev/svgjs" width="2000" height="2250" viewBox="0 0 2000 2250"><g transform="matrix(1,0,0,1,0.00014687500004129106,0)"><svg viewBox="0 0 320 360" data-background-color="#ffffff" preserveAspectRatio="xMidYMid meet" height="2250" width="2000" xmlns="http://www.w3.org/2000/svg" xmlns:xlink="http://www.w3.org/1999/xlink"><g id="tight-bounds" transform="matrix(1,0,0,1,0.000023499999997511622,0)"><svg viewBox="0 0 320 360" height="360" width="320"><g><svg></svg></g><g><svg viewBox="0 0 320 360" height="360" width="320"><g><path transform="translate(-74.99272,-51.79039) scale(4.65793,4.65793)" d="M20.6 59.9l0.8 1-0.4-1.3c-0.1-0.6-0.8 0.1-0.4 0.3M21.5 59.3c0.3 0.5 0.6 1 0.6 1.5 0 0.7 0.6 1 1.1 1.2-0.7-0.8-1.1-3-1.7-2.7M59.9 16.9c1.7 0 3.3-0.2 5.1 0.2 4.4 1.1 8.1 3.3 10.6 6.4l7 11.2c0.3 2.8 0.9 5.9 0.8 9.3 0.7 0 0.6-1 1.4-1.2-0.8 2-1.2 4.5-1.4 7.4-0.5-1.6 0-4 0.1-5.3-0.7 1.1-1.1 0.3-1.1-0.2 0.1-0.8-0.3-0.7-0.6-1-1.1-1-1.8-2.1-2.6-3.8 0.5-1.3 0.6-3.2-1-4.2-0.5-0.3-1.1-0.8-1.4-1.6-0.4-1.1-1.1-2.4-0.9-4.1 0.1-0.5-1.5 1.1-2.4 0.4-3.9-2.7-7.8-5.8-12.5-8.4-2.5 0-4.3-0.9-5.2-2-0.8-1-0.2-2.3 1-2.4 0.7 0 1.5-0.2 2.1 0.2 0.1-0.4 0.5-0.9 1-0.9M50 14.6l0.2 0.1c1 0.2 1.5 1.6 2.6 1.1 0 0.7 0.1 1.4-0.1 1.9-0.3 0.8-1.2 0.8-1.9 0.8-6.7-0.4-10.6 2.4-14.7 4.8-1.1 0.7-2.3 1.2-3.2 2.1-4.3 4-9 7.7-10.1 15.1l-0.9 8.2c-0.1 0.9-1.1 1.8-0.9 2.9l0.7 4.9c-0.7-0.7-1.1 0.2-0.9 0.6 0.1 0.3 0.5 1.3 1.1 0.4 0.8 1.5 1.6 4.4 2.7 5.7 3.4 4 7.8 7.6 11.4 11.2 0.9-0.2 1.6-0.2 1.8-0.8 0.3 0.6-0.3 1.2-0.8 1.3 1.6 1 3.4 1.9 5.8 2.1 3.1 0.2 6 0.7 8.7 1.4 1.4-0.4 2.8-0.6 4.3-0.7 0.5 0 0.8-0.8 1.4-1l0.1-1c0.6 0.9 0.5-0.3 0.1-0.9 0.7 0.6 0.9 1.1 1.2 1.5 0-0.3 0.8-1.4 0.8-0.1l0.2-1.3c0.3-0.2 0.4 1.1 0.7 0.2 0.3-0.9 0.9-0.2 1.5-0.5-0.2 0.4-0.1 1.2 0.6 0.7l0.8-0.7c0.5 1.2 1.3 0.7 1.7 0.5 4.4-2.8 8.8-6.1 13-9.4l-0.1 1.3 0.5-1.6c0.5 0.5 0.9 0.1 1.1-0.2 0.6-1 1.4-2 2.7-2.9-1.6 4.3-3.5 7.7-5.9 10.5l-1 1.2c0 0.7-0.2 1.6-1 1.7-0.4 0.1-1.2-0.2-1.8 0.4-0.3 0.4 0.7 1.2-0.1 0.6-0.7-0.5-1.4 0-2.2 0.2-0.6 0.2 0.4 0.8 0.6 1.2 0.2 0.4 0.4 0.8 0.3 1.3l-1.1-1.2c-1.3 0.7-2.1 2-3.2 3-0.5 0.4-0.3 1.1-0.3 1.7-0.7 0-1.5-0.2-1.9 0.2-0.3 0.4-0.2 1-0.2 1.6-1-0.1-1.1-1.6-2-1.3-0.9 0.2-1.9 0.3-2.7 0.8 0.6 1.2-1 0.5-0.8 0.7-1.5-0.9-2.8-1.6-4.4-1-3.4-1.1-7.6-0.6-10.7-0.2 0-0.5 0.1-1-0.1-1.1-0.2 0.5-0.8 0.3-0.7 0.3-1.9-1.3-3.8-2.1-5.8-3.2-1.8 0.2-3.5-0.7-4-1.2-1.4-1.3-3-0.6-4.3-0.9-2.8-0.7-3.8-3.6-4.1-5.6-0.2-1-1-1.4-1.3-1.3-1.3-4.2-3.3-8-4.9-11.9-0.4-1-0.3-2-0.3-3.1 0.5 0.2 1 0.1 0.9-0.6-0.5-3.3-1.7-5.8-3-8.2 0.7-3.4 0.8-7.4 2.4-10.4 1.4-2.7 4-4.1 5.8-6.4 0.6-0.8 0.6-1.9 1.2-2.6 2-2 4-4.1 6.2-5.9 1-0.8 2.2 0 3.7-0.3 0.5-1.8 2.5-3.4 4.4-2.9 0.8 0.2 2.4-1.9 2.9-2.1 0.8-0.3 0.4 0.8 0.4 1.5 1.9-1.5 4.5-2.3 6.9-3.2" fill="#31c48d" fill-rule="nonzero" stroke="none" stroke-width="1" stroke-linecap="butt" stroke-linejoin="miter" stroke-miterlimit="10" stroke-dasharray="" stroke-dashoffset="0" font-family="none" font-weight="none" font-size="none" text-anchor="none" style="mix-blend-mode: normal" data-fill-palette-color="tertiary"></path></g><g transform="matrix(1,0,0,1,64,91.60564107633061)"><svg viewBox="0 0 192 176.78871784733877" height="176.78871784733877" width="192"><g><svg viewBox="0 0 192 176.78871784733877" height="176.78871784733877" width="192"><g><svg viewBox="0 0 192 176.78871784733877" height="176.78871784733877" width="192"><g transform="matrix(1,0,0,1,0,105.1444189235281)"><svg viewBox="0 0 192 71.64429892381067" height="71.64429892381067" width="192"><g id="textblocktransform"><svg viewBox="0 0 192 71.64429892381067" height="71.64429892381067" width="192" id="textblock"><g><svg viewBox="0 0 192 42.02185939819188" height="42.02185939819188" width="192"><g transform="matrix(1,0,0,1,0,0)"><svg width="192" viewBox="4.22 -39.11 180.92 39.6" height="42.02185939819188" data-palette-color="#31c48d"><path d="M8.5 0L4.22 0 6.93-35.77 14.11-35.77 22.95-10.79 24.32-6.13 24.8-6.13 26.15-10.79 35.01-35.77 42.21-35.77 44.92 0 40.21 0 38.31-28.08 38.11-33.2 37.65-33.2 36.23-28.32 26.56-0.73 22.24-0.73 12.48-28.27 11.01-33.2 10.55-33.2 10.4-28.13 8.5 0ZM67.23-3.86L67.23-3.86Q66.62-3.34 65.76-2.6 64.89-1.86 63.8-1.17 62.72-0.49 61.44 0 60.15 0.49 58.71 0.49L58.71 0.49Q57.42 0.49 56.19 0.04 54.95-0.42 54-1.31 53.05-2.2 52.48-3.52 51.9-4.83 51.9-6.54L51.9-6.54Q51.9-7.59 52.16-8.67 52.41-9.74 53.02-10.73 53.64-11.72 54.62-12.59 55.61-13.45 57.07-14.1 58.52-14.75 60.5-15.11 62.47-15.48 65.04-15.48L65.04-15.48 67.23-15.48 67.23-17.72Q67.23-18.85 66.84-19.75 66.45-20.65 65.76-21.3 65.06-21.95 64.1-22.3 63.13-22.66 61.96-22.66L61.96-22.66Q61.08-22.66 60.09-22.46 59.1-22.27 58.12-21.9 57.13-21.53 56.22-21.04 55.32-20.56 54.64-19.97L54.64-19.97 54.2-20.21 53.22-23.78Q54.64-24.56 55.95-25.06 57.27-25.56 58.48-25.85 59.69-26.15 60.79-26.26 61.89-26.37 62.89-26.37L62.89-26.37Q67.45-26.37 69.66-24.48 71.87-22.58 71.87-18.8L71.87-18.8 71.87-6.05Q71.87-5.74 71.92-5.29 71.97-4.83 72.15-4.42 72.34-4 72.69-3.71 73.04-3.42 73.65-3.42L73.65-3.42Q74-3.42 74.56-3.53 75.12-3.64 75.68-3.91L75.68-3.91 75.68-1.32Q74.51-0.51 73.33-0.01 72.14 0.49 71.04 0.49L71.04 0.49Q70.04 0.49 69.39 0.09 68.75-0.32 68.32-0.95 67.89-1.59 67.65-2.36 67.4-3.13 67.23-3.86ZM67.23-6.98L67.23-12.65 65.38-12.65Q62.52-12.65 60.83-12.24 59.13-11.84 58.24-11.17 57.35-10.5 57.07-9.62 56.78-8.74 56.78-7.79L56.78-7.79Q56.78-6.76 57.08-5.96 57.37-5.15 57.9-4.58 58.42-4 59.15-3.71 59.89-3.42 60.74-3.42L60.74-3.42Q61.4-3.42 62.09-3.58 62.79-3.74 63.58-4.14 64.38-4.54 65.27-5.22 66.16-5.91 67.23-6.98L67.23-6.98ZM81.32 0L81.32-39.11 85.96-39.11 85.96 0 81.32 0ZM103.97 0L98.21 0 87.62-13.82 98.07-25.88 103.1-25.88 92.45-14.18 103.97 0ZM108-1.17L108.98-5.08 109.42-5.37Q110.34-4.86 111.37-4.46 112.39-4.05 113.4-3.78 114.4-3.52 115.36-3.37 116.33-3.22 117.16-3.22L117.16-3.22Q118.3-3.22 119.26-3.49 120.21-3.76 120.88-4.25 121.55-4.74 121.93-5.42 122.31-6.1 122.31-6.93L122.31-6.93Q122.31-7.98 121.72-8.68 121.14-9.38 120.18-9.88 119.23-10.38 118.01-10.74 116.79-11.11 115.52-11.5 114.25-11.89 113.03-12.38 111.81-12.87 110.86-13.61 109.9-14.36 109.32-15.42 108.73-16.48 108.73-18.02L108.73-18.02Q108.73-19.73 109.49-21.25 110.25-22.78 111.61-23.91 112.98-25.05 114.9-25.71 116.81-26.37 119.16-26.37L119.16-26.37Q119.72-26.37 120.5-26.32 121.28-26.27 122.16-26.16 123.04-26.05 123.95-25.87 124.87-25.68 125.72-25.42L125.72-25.42 124.75-21.61 124.16-21.26Q123.48-21.63 122.66-21.9 121.84-22.17 121-22.33 120.16-22.49 119.35-22.57 118.55-22.66 117.94-22.66L117.94-22.66Q116.81-22.66 115.9-22.41 114.98-22.17 114.32-21.72 113.66-21.26 113.3-20.62 112.93-19.97 112.93-19.14L112.93-19.14Q112.93-18.07 113.52-17.36 114.1-16.65 115.08-16.15 116.06-15.65 117.29-15.28 118.52-14.92 119.82-14.53 121.11-14.14 122.34-13.65 123.58-13.16 124.55-12.4 125.53-11.65 126.12-10.56 126.7-9.47 126.7-7.91L126.7-7.91Q126.7-6.08 125.88-4.54 125.07-3 123.64-1.88 122.21-0.76 120.29-0.13 118.38 0.49 116.18 0.49L116.18 0.49Q114.3 0.49 112.16 0.05 110.03-0.39 108-1.17L108-1.17ZM133.66 0L133.66-25.88 138.3-25.88 138.3 0 133.66 0ZM136-31.49L136-31.49Q135.39-31.49 134.85-31.71 134.32-31.93 133.93-32.32 133.53-32.71 133.32-33.24 133.1-33.76 133.1-34.4L133.1-34.4Q133.1-35.03 133.34-35.6 133.58-36.16 133.99-36.57 134.39-36.99 134.94-37.22 135.49-37.45 136.1-37.45L136.1-37.45Q136.68-37.45 137.21-37.22 137.73-36.99 138.12-36.57 138.52-36.16 138.74-35.61 138.95-35.06 138.95-34.45L138.95-34.45Q138.95-33.79 138.71-33.24 138.47-32.69 138.06-32.31 137.66-31.93 137.12-31.71 136.59-31.49 136-31.49ZM146.96 0L146.96-25.88 150.57-25.88 151.31-21.39Q152.14-22.17 153.22-23.05 154.31-23.93 155.54-24.66 156.77-25.39 158.11-25.88 159.44-26.37 160.78-26.37L160.78-26.37Q161.88-26.37 162.95-26 164.03-25.63 164.94-24.98 165.86-24.32 166.58-23.38 167.3-22.44 167.71-21.29L167.71-21.29Q168.62-22.09 169.69-22.99 170.76-23.88 171.97-24.63 173.18-25.39 174.55-25.88 175.92-26.37 177.43-26.37L177.43-26.37Q179.21-26.37 180.64-25.67 182.07-24.98 183.07-23.73 184.07-22.49 184.61-20.79 185.14-19.09 185.14-17.09L185.14-17.09 185.14 0 180.51 0 180.51-16.7Q180.51-18.02 180.15-19.08 179.8-20.14 179.14-20.9 178.48-21.66 177.54-22.06 176.6-22.46 175.43-22.46L175.43-22.46Q174.43-22.46 173.53-22.17 172.64-21.88 171.78-21.35 170.91-20.83 170.04-20.09 169.18-19.36 168.27-18.51L168.27-18.51Q168.32-18.16 168.33-17.83 168.35-17.5 168.35-17.09L168.35-17.09 168.35 0 163.71 0 163.71-16.7Q163.71-18.02 163.34-19.08 162.98-20.14 162.3-20.9 161.63-21.66 160.68-22.06 159.73-22.46 158.58-22.46L158.58-22.46Q157.6-22.46 156.73-22.17 155.85-21.88 155-21.35 154.16-20.83 153.32-20.1 152.48-19.38 151.6-18.55L151.6-18.55 151.6 0 146.96 0Z" opacity="1" transform="matrix(1,0,0,1,0,0)" fill="#31c48d" class="wordmark-text-0" data-fill-palette-color="primary" id="text-0"></path></svg></g></svg></g><g transform="matrix(1,0,0,1,0,48.15385720901363)"><svg viewBox="0 0 192 23.49044171479704" height="23.49044171479704" width="192"><g transform="matrix(1,0,0,1,0,0)"><svg width="192" viewBox="4.85 -37.1 307.295 37.6" height="23.49044171479704" data-palette-color="#adbfb8"><path d="M4.85-36.4L4.85-36.4Q4.85-37.1 5.45-37.1L5.45-37.1 27.45-37.1Q27.95-37.1 27.95-36.55L27.95-36.55 27.95-34Q27.95-33.4 27.3-33.4L27.3-33.4 10.3-33.4Q9.65-33.4 9.65-32.8L9.65-32.8 9.65-20.5Q9.65-19.95 10.2-19.95L10.2-19.95 23.55-19.95Q24.1-19.95 24.1-19.45L24.1-19.45 24.1-16.8Q24.1-16.35 23.55-16.35L23.55-16.35 10.2-16.35Q9.65-16.35 9.65-15.8L9.65-15.8 9.65-0.65Q9.65 0 8.95 0L8.95 0 5.55 0Q5.15 0 5-0.15 4.85-0.3 4.85-0.7L4.85-0.7 4.85-36.4ZM31.8 0L31.8 0Q31.45 0 31.27-0.18 31.1-0.35 31.1-0.65L31.1-0.65 31.1-25.85Q31.1-26.5 31.65-26.5L31.65-26.5 34.55-26.5Q35.1-26.5 35.1-25.95L35.1-25.95 35.1-22.7Q35.1-22.4 35.25-22.35 35.4-22.3 35.65-22.55L35.65-22.55Q36.95-24.1 38.22-25.08 39.5-26.05 40.8-26.53 42.1-27 43.4-27L43.4-27Q45.15-27 45.15-26.35L45.15-26.35 45.15-23.35Q45.15-22.85 44.7-22.95L44.7-22.95Q44.25-23 43.67-23.05 43.1-23.1 42.45-23.1L42.45-23.1Q41.35-23.1 40.1-22.63 38.85-22.15 37.77-21.3 36.7-20.45 36-19.4 35.3-18.35 35.3-17.3L35.3-17.3 35.3-0.75Q35.3 0 34.55 0L34.55 0 31.8 0ZM60.7 0.5L60.7 0.5Q56.95 0.5 54.07-1.23 51.2-2.95 49.62-6.03 48.05-9.1 48.05-13.1L48.05-13.1Q48.05-17.25 49.67-20.38 51.3-23.5 54.15-25.25 57-27 60.75-27L60.75-27Q64.55-27 67.37-25.23 70.2-23.45 71.77-20.33 73.34-17.2 73.34-13.15L73.34-13.15Q73.34-9.15 71.75-6.08 70.15-3 67.32-1.25 64.5 0.5 60.7 0.5L60.7 0.5ZM60.8-2.65L60.8-2.65Q63.4-2.65 65.25-3.93 67.09-5.2 68.07-7.58 69.05-9.95 69.05-13.25L69.05-13.25Q69.05-16.55 68.05-18.93 67.05-21.3 65.2-22.6 63.35-23.9 60.75-23.9L60.75-23.9Q58.2-23.9 56.3-22.6 54.4-21.3 53.37-18.93 52.35-16.55 52.35-13.25L52.35-13.25Q52.35-10 53.37-7.6 54.4-5.2 56.3-3.93 58.2-2.65 60.8-2.65L60.8-2.65ZM80.24 0L80.24 0Q79.54 0 79.54-0.65L79.54-0.65 79.54-25.85Q79.54-26.5 80.09-26.5L80.09-26.5 83.09-26.5Q83.64-26.5 83.64-25.95L83.64-25.95 83.64-23.05Q83.64-22.8 83.74-22.75 83.84-22.7 84.09-22.9L84.09-22.9Q85.74-24.2 87.17-25.13 88.59-26.05 90.09-26.53 91.59-27 93.29-27L93.29-27Q97.19-27 99.27-24.9 101.34-22.8 101.34-19.45L101.34-19.45 101.34-0.8Q101.34 0 100.59 0L100.59 0 97.79 0Q97.44 0 97.29-0.18 97.14-0.35 97.14-0.65L97.14-0.65 97.14-18.5Q97.14-20.95 95.89-22.33 94.64-23.7 91.94-23.7L91.94-23.7Q90.49-23.7 89.22-23.23 87.94-22.75 86.64-21.88 85.34-21 83.74-19.65L83.74-19.65 83.74-0.75Q83.74 0 82.99 0L82.99 0 80.24 0ZM121.44-23.35L115.09-23.35Q114.69-23.35 114.69-22.95L114.69-22.95 114.69-7.1Q114.69-4.75 115.49-3.95 116.29-3.15 117.89-3.15L117.89-3.15 121.34-3.15Q121.59-3.15 121.74-3.03 121.89-2.9 121.89-2.6L121.89-2.6 121.84-0.9Q121.84-0.4 121.24-0.25L121.24-0.25Q120.74-0.15 119.82-0.1 118.89-0.05 118.02-0.03 117.14 0 116.54 0L116.54 0Q113.39 0 111.94-1.48 110.49-2.95 110.49-6.15L110.49-6.15 110.49-22.85Q110.49-23.35 109.99-23.35L109.99-23.35 105.99-23.35Q105.44-23.35 105.44-23.9L105.44-23.9 105.44-26Q105.44-26.5 105.94-26.5L105.94-26.5 110.19-26.5Q110.54-26.5 110.54-26.9L110.54-26.9 111.09-34.85Q111.14-35.5 111.64-35.5L111.64-35.5 114.14-35.5Q114.74-35.5 114.74-34.8L114.74-34.8 114.74-26.9Q114.74-26.5 115.14-26.5L115.14-26.5 121.44-26.5Q121.99-26.5 121.99-26.05L121.99-26.05 121.99-23.9Q121.99-23.35 121.44-23.35L121.44-23.35ZM129.59-11.6L129.59-11.6Q129.59-9.15 130.76-7.13 131.94-5.1 133.91-3.9 135.89-2.7 138.34-2.7L138.34-2.7Q140.84-2.7 142.79-3.73 144.74-4.75 146.14-6.85L146.14-6.85Q146.34-7.05 146.46-7.08 146.59-7.1 146.84-7L146.84-7 148.94-5.95Q149.39-5.7 149.04-5.25L149.04-5.25Q147.69-3.25 146.06-1.98 144.44-0.7 142.44-0.1 140.44 0.5 137.94 0.5L137.94 0.5Q134.24 0.5 131.39-1.2 128.54-2.9 126.89-5.95 125.24-9 125.24-13L125.24-13Q125.24-17.35 126.91-20.48 128.59-23.6 131.46-25.3 134.34-27 137.89-27L137.89-27Q141.54-27 144.24-25.4 146.94-23.8 148.44-20.75 149.94-17.7 149.94-13.4L149.94-13.4Q149.94-13.05 149.86-12.7 149.79-12.35 149.19-12.35L149.19-12.35 130.04-12.35Q129.84-12.35 129.71-12.13 129.59-11.9 129.59-11.6L129.59-11.6ZM129.69-15.1L144.89-15.1Q145.44-15.1 145.59-15.23 145.74-15.35 145.74-15.8L145.74-15.8Q145.74-17.95 144.81-19.83 143.89-21.7 142.16-22.85 140.44-24 137.99-24L137.99-24Q135.29-24 133.44-22.73 131.59-21.45 130.64-19.4 129.69-17.35 129.69-15.1L129.69-15.1ZM156.54 0L156.54 0Q155.84 0 155.84-0.65L155.84-0.65 155.84-25.85Q155.84-26.5 156.39-26.5L156.39-26.5 159.39-26.5Q159.94-26.5 159.94-25.95L159.94-25.95 159.94-23.05Q159.94-22.8 160.04-22.75 160.14-22.7 160.39-22.9L160.39-22.9Q162.04-24.2 163.46-25.13 164.89-26.05 166.39-26.53 167.89-27 169.59-27L169.59-27Q173.49-27 175.56-24.9 177.64-22.8 177.64-19.45L177.64-19.45 177.64-0.8Q177.64 0 176.89 0L176.89 0 174.09 0Q173.74 0 173.59-0.18 173.44-0.35 173.44-0.65L173.44-0.65 173.44-18.5Q173.44-20.95 172.19-22.33 170.94-23.7 168.24-23.7L168.24-23.7Q166.79-23.7 165.51-23.23 164.24-22.75 162.94-21.88 161.64-21 160.04-19.65L160.04-19.65 160.04-0.75Q160.04 0 159.29 0L159.29 0 156.54 0ZM203.88 0L203.88 0Q203.53 0 203.36-0.18 203.18-0.35 203.18-0.7L203.18-0.7 203.18-2.8Q203.18-3.2 203.01-3.25 202.83-3.3 202.53-3L202.53-3Q201.98-2.5 200.96-1.65 199.93-0.8 198.38-0.15 196.83 0.5 194.68 0.5L194.68 0.5Q191.53 0.5 189.03-1 186.53-2.5 185.06-5.48 183.58-8.45 183.58-12.85L183.58-12.85Q183.58-17.1 185.06-20.28 186.53-23.45 189.21-25.23 191.88-27 195.28-27L195.28-27Q197.73-27 199.38-26.2 201.03-25.4 202.28-24.35L202.28-24.35Q202.73-24 202.91-24.08 203.08-24.15 203.08-24.7L203.08-24.7 203.08-36.45Q203.08-37.1 203.63-37.1L203.63-37.1 206.68-37.1Q207.23-37.1 207.23-36.45L207.23-36.45 207.23-0.8Q207.23-0.35 207.08-0.18 206.93 0 206.43 0L206.43 0 203.88 0ZM203.03-20.65L203.03-20.65Q201.48-22.2 199.88-23.05 198.28-23.9 196.28-23.9L196.28-23.9Q193.88-23.9 191.96-22.68 190.03-21.45 188.96-19 187.88-16.55 187.88-13L187.88-13Q187.88-9.35 188.98-7.03 190.08-4.7 191.93-3.63 193.78-2.55 195.98-2.55L195.98-2.55Q198.03-2.55 199.61-3.5 201.18-4.45 202.11-5.85 203.03-7.25 203.03-8.6L203.03-8.6 203.03-20.65ZM227.43-37.1L227.43-37.1Q227.78-37.1 228.88-37.1 229.98-37.1 231.28-37.08 232.58-37.05 233.68-37.05 234.78-37.05 235.23-37.05L235.23-37.05Q242.18-36.95 246.45-34.85 250.73-32.75 252.7-28.75 254.68-24.75 254.68-18.85L254.68-18.85Q254.68-12.6 252.53-8.4 250.38-4.2 245.93-2.1 241.48 0 234.73 0L234.73 0 227.38 0Q226.68 0 226.68-0.8L226.68-0.8 226.68-36.4Q226.68-36.75 226.85-36.93 227.03-37.1 227.43-37.1L227.43-37.1ZM231.98-33.45L231.98-33.45Q231.48-33.45 231.48-32.75L231.48-32.75 231.48-4.15Q231.48-3.6 232.08-3.6L232.08-3.6 233.98-3.6Q239.53-3.6 242.98-5.08 246.43-6.55 248.05-9.85 249.68-13.15 249.68-18.6L249.68-18.6Q249.68-24.3 248-27.53 246.33-30.75 242.9-32.1 239.48-33.45 234.23-33.45L234.23-33.45 231.98-33.45ZM264.57-11.6L264.57-11.6Q264.57-9.15 265.75-7.13 266.93-5.1 268.9-3.9 270.88-2.7 273.32-2.7L273.32-2.7Q275.82-2.7 277.78-3.73 279.73-4.75 281.13-6.85L281.13-6.85Q281.32-7.05 281.45-7.08 281.57-7.1 281.82-7L281.82-7 283.93-5.95Q284.38-5.7 284.03-5.25L284.03-5.25Q282.68-3.25 281.05-1.98 279.43-0.7 277.43-0.1 275.43 0.5 272.93 0.5L272.93 0.5Q269.23 0.5 266.38-1.2 263.53-2.9 261.88-5.95 260.23-9 260.23-13L260.23-13Q260.23-17.35 261.9-20.48 263.57-23.6 266.45-25.3 269.32-27 272.88-27L272.88-27Q276.53-27 279.23-25.4 281.93-23.8 283.43-20.75 284.93-17.7 284.93-13.4L284.93-13.4Q284.93-13.05 284.85-12.7 284.78-12.35 284.18-12.35L284.18-12.35 265.03-12.35Q264.82-12.35 264.7-12.13 264.57-11.9 264.57-11.6L264.57-11.6ZM264.68-15.1L279.88-15.1Q280.43-15.1 280.57-15.23 280.73-15.35 280.73-15.8L280.73-15.8Q280.73-17.95 279.8-19.83 278.88-21.7 277.15-22.85 275.43-24 272.98-24L272.98-24Q270.28-24 268.43-22.73 266.57-21.45 265.63-19.4 264.68-17.35 264.68-15.1L264.68-15.1ZM311.57-26.5L311.57-26.5Q311.92-26.5 312.07-26.28 312.22-26.05 312.07-25.75L312.07-25.75 301.92-0.75Q301.67 0 300.77 0L300.77 0 298.97 0Q298.02 0 297.72-0.7L297.72-0.7 287.62-25.75Q287.52-26.05 287.67-26.28 287.82-26.5 288.17-26.5L288.17-26.5 291.27-26.5Q291.57-26.5 291.77-26.38 291.97-26.25 292.07-25.95L292.07-25.95 299.92-6.3Q300.27-5.35 300.72-6.35L300.72-6.35 308.52-25.95Q308.62-26.25 308.8-26.38 308.97-26.5 309.27-26.5L309.27-26.5 311.57-26.5Z" opacity="1" transform="matrix(1,0,0,1,0,0)" fill="#adbfb8" class="slogan-text-1" data-fill-palette-color="secondary" id="text-1"></path></svg></g></svg></g></svg></g></svg></g><g transform="matrix(1,0,0,1,46.493789443646826,0)"><svg viewBox="0 0 99.01242111270635 99.01242111270635" height="99.01242111270635" width="99.01242111270635"><g><svg xmlns="http://www.w3.org/2000/svg" xmlns:xlink="http://www.w3.org/1999/xlink" version="1.1" x="0" y="0" viewBox="0 0 64 64" enable-background="new 0 0 64 64" xml:space="preserve" height="99.01242111270635" width="99.01242111270635" class="icon-icon-0" data-fill-palette-color="accent" id="icon-0"><g fill="#096a2e" data-fill-palette-color="accent"><path d="M58 0H6C2.7 0 0 2.7 0 6v52c0 3.3 2.7 6 6 6h52c3.299 0 6-2.7 6-6V6C64 2.7 61.299 0 58 0zM50.805 7.285h5.986v4.912h-5.986V7.285zM7.209 7.285h23.947v4.912H7.209V7.285zM57.328 56.111H6.671V18.645h50.657V56.111z" fill="#096a2e" data-fill-palette-color="accent"></path><polygon points="23.662,41.776 14.259,36.063 23.662,30.554 23.662,24.695 10.18,33.638 10.18,38.611 23.662,47.593  " fill="#096a2e" data-fill-palette-color="accent"></polygon><polygon points="53.82,33.638 40.338,24.695 40.338,30.554 49.74,36.063 40.338,41.776 40.338,47.593 53.82,38.611  " fill="#096a2e" data-fill-palette-color="accent"></polygon><polygon points="37.379,21.938 33.424,21.938 26.621,50.351 30.501,50.351  " fill="#096a2e" data-fill-palette-color="accent"></polygon></g></svg></g></svg></g><g></g></svg></g></svg></g></svg></g></svg></g><defs></defs></svg><rect width="320" height="360" fill="none" stroke="none" visibility="hidden"></rect></g></svg></g></svg>